<?xml version="1.0"?>
<svg xmlns="http://www.w3.org/2000/svg" id="Layer_1" data-name="Layer 1" viewBox="0 0 512 512" width="512" height="512"><title>Auditorium</title><path d="M442.5,285.971A29.57,29.57,0,0,0,413,315.72v33.14c-3,17.088-18.291,34.125-43.757,47.32-30.049,15.568-70.3,23.974-113.119,23.974s-83.256-8.462-113.305-24.03C117.353,382.929,102,365.937,99,348.858V315.72a29.5,29.5,0,1,0-59,0v157.2A8.065,8.065,0,0,0,48,481H91.5c4.418,0,7.5-3.657,7.5-8.075V383.306c9,10.01,21.173,19.136,36.4,27.024,32.281,16.725,75.148,25.712,120.479,25.712s88.384-8.987,120.665-25.712C391.764,402.442,404,393.316,413,383.306v89.619c0,4.418,3.084,8.075,7.5,8.075H464a8.065,8.065,0,0,0,8-8.075V315.72A29.571,29.571,0,0,0,442.5,285.971Zm-373,16A13.554,13.554,0,0,1,83,315.72V336H56V315.72A13.554,13.554,0,0,1,69.5,301.971ZM56,465V352H83V465ZM442.5,301.971A13.554,13.554,0,0,1,456,315.72V336H429V315.72A13.554,13.554,0,0,1,442.5,301.971ZM429,465V352h27V465Z"/><path d="M99.057,236h14.1l6.7,122.618A7.846,7.846,0,0,0,127.843,366h64.344a7.845,7.845,0,0,0,7.99-7.4L206.555,236h2.755l6.7,122.618A7.844,7.844,0,0,0,224,366h64.345a7.845,7.845,0,0,0,7.989-7.4L302.71,236h2.754l6.7,122.618A7.845,7.845,0,0,0,320.151,366H384.5a7.844,7.844,0,0,0,7.989-7.4l6.38-122.6h14.078A8.272,8.272,0,0,0,421,227.743V153.737A48.826,48.826,0,0,0,372.3,105h-5.591a38.48,38.48,0,1,0-29.455,0H332a48.259,48.259,0,0,0-27.915,8.861A48.356,48.356,0,0,0,276.15,105h-5.592a38.479,38.479,0,1,0-29.455,0H235.85a48.353,48.353,0,0,0-27.94,8.862A48.331,48.331,0,0,0,180,105H174.4a38.48,38.48,0,1,0-29.455,0H139.7A48.826,48.826,0,0,0,91,153.737v74.006A8.272,8.272,0,0,0,99.057,236ZM329.506,69.554a22.479,22.479,0,1,1,22.479,22.479A22.5,22.5,0,0,1,329.506,69.554Zm-96.154,0a22.479,22.479,0,1,1,22.479,22.479A22.5,22.5,0,0,1,233.352,69.554Zm-96.155,0a22.479,22.479,0,1,1,22.479,22.479A22.5,22.5,0,0,1,137.2,69.554ZM372.3,121A32.808,32.808,0,0,1,405,153.737V220H391.269a7.844,7.844,0,0,0-7.989,7.4L376.9,350H360V272.624a8,8,0,0,0-16,0V350H327.727l-6.214-115.787a7.978,7.978,0,0,0,3.487-6.47V153.737a48.6,48.6,0,0,0-9.186-28.3A31.975,31.975,0,0,1,332,121Zm-96.154,0a32.524,32.524,0,0,1,21.145,7.855,8.267,8.267,0,0,0,.851,1.089,8.65,8.65,0,0,0,1.765,1.328A32.634,32.634,0,0,1,309,153.737V220H295.115a7.845,7.845,0,0,0-7.99,7.4L280.746,350H264V272.624a8,8,0,0,0-16,0V350H231.573l-6.7-122.619A7.844,7.844,0,0,0,216.885,220H203V153.737A32.941,32.941,0,0,1,235.85,121ZM107,153.737A32.808,32.808,0,0,1,139.7,121H180a32.023,32.023,0,0,1,16.185,4.448A48.6,48.6,0,0,0,187,153.737v74.006a7.982,7.982,0,0,0,3.5,6.483L184.592,350H168V272.624a8,8,0,0,0-16,0V350H135.418l-6.7-122.619A7.845,7.845,0,0,0,120.731,220H107Z"/></svg>
